<svg xmlns="http://www.w3.org/2000/svg" viewBox="0 0 390.28 43.7"><defs><style>.cls-1{fill:#fff;}.cls-2{fill:none;stroke:#fff;stroke-miterlimit:10;stroke-width:2.5px;}</style></defs><g id="Layer_2" data-name="Layer 2"><g id="mockup"><rect class="cls-1" x="12.67" y="0.59" width="2.5" height="42.4"/><rect class="cls-1" y="0.13" width="28.08" height="2.5"/><rect class="cls-1" x="51.11" y="0.56" width="2.5" height="42.53"/><rect class="cls-1" x="32.49" y="0.56" width="2.5" height="42.53"/><rect class="cls-1" x="34.12" y="20.62" width="17.28" height="2.5"/><polyline class="cls-2" points="75.77 1.01 58.63 21.93 75.77 42.44"/><line class="cls-2" x1="75.89" y1="21.93" x2="58.63" y2="21.93"/><polyline class="cls-2" points="121.99 17.69 109.79 2.31 94.2 21.76 109.68 41.33 119.67 28.46 109.57 21.76"/><polyline class="cls-2" points="127.99 42.99 127.99 2.68 144.07 14.03 129.39 23.99 145.27 42.44"/><polygon class="cls-2" points="172.5 42.06 185.25 3.97 199.13 42.06 172.5 42.06"/><polyline class="cls-2" points="165.68 1.12 148.53 22.03 165.68 42.54"/><line class="cls-2" x1="165.8" y1="22.03" x2="148.53" y2="22.03"/><rect class="cls-1" x="208.79" y="0.49" width="2.5" height="42.4"/><rect class="cls-1" x="196.12" y="0.03" width="28.08" height="2.5"/><polyline class="cls-2" points="283.62 11.14 275.44 2.12 267.81 10.19 285.1 29.79 275.44 41.33 266.54 31.42"/><polyline class="cls-2" points="314.27 14.27 304.74 2.12 289.66 21.73 304.74 41.33 314.38 28.65"/><polyline class="cls-2" points="259.65 0.93 242.5 21.84 259.65 42.35"/><line class="cls-2" x1="259.77" y1="21.84" x2="242.5" y2="21.84"/><polygon class="cls-2" points="318.43 41.88 331.19 3.79 345.06 41.88 318.43 41.88"/><polyline class="cls-2" points="352.78 42.99 352.78 2.68 368.86 14.03 353.18 24.59"/><polyline class="cls-2" points="389.31 1.48 372.17 22.39 389.31 42.9"/><line class="cls-2" x1="389.43" y1="22.39" x2="372.17" y2="22.39"/></g></g></svg>