<svg xmlns="http://www.w3.org/2000/svg" viewBox="0 0 122.95 151.34"><defs><style>.cls-1{fill:#fff;}.cls-2{fill:none;stroke:#fff;stroke-miterlimit:10;stroke-width:2px;}</style></defs><g id="Layer_2" data-name="Layer 2"><g id="mockup"><rect class="cls-1" x="11.76" y="0.35" width="2" height="34.91"/><rect class="cls-1" x="1.3" width="23.12" height="2"/><rect class="cls-1" x="43.4" y="0.32" width="2" height="35.02"/><rect class="cls-1" x="28.08" y="0.32" width="2" height="35.02"/><rect class="cls-1" x="29.39" y="16.87" width="14.23" height="2"/><polyline class="cls-2" points="63.69 0.7 49.57 17.92 63.69 34.8"/><line class="cls-2" x1="63.78" y1="17.92" x2="49.57" y2="17.92"/><polyline class="cls-2" points="24.18 72.41 14.14 59.74 1.3 75.76 14.05 91.87 22.27 81.27 13.96 75.76"/><polyline class="cls-2" points="29.12 93.24 29.12 60.05 42.36 69.39 30.16 77.32 43.35 92.78"/><polygon class="cls-2" points="65.77 92.47 76.27 61.11 87.69 92.47 65.77 92.47"/><polyline class="cls-2" points="60.15 58.76 46.04 75.98 60.15 92.86"/><line class="cls-2" x1="60.25" y1="75.98" x2="46.04" y2="75.98"/><rect class="cls-1" x="95.68" y="58.24" width="2" height="34.91"/><rect class="cls-1" x="85.22" y="57.9" width="23.12" height="2"/><polyline class="cls-2" points="35.15 124.55 28.42 117.13 22.13 123.77 36.37 139.91 28.42 149.41 21.09 141.25"/><polyline class="cls-2" points="60.39 127.13 52.54 117.13 40.13 133.27 52.54 149.41 60.48 138.97"/><polyline class="cls-2" points="15.42 116.14 1.3 133.36 15.42 150.25"/><line class="cls-2" x1="15.52" y1="133.36" x2="1.3" y2="133.36"/><polygon class="cls-2" points="63.81 149.86 74.32 118.5 85.74 149.86 63.81 149.86"/><polyline class="cls-2" points="92.09 150.78 92.09 117.59 105.33 126.93 92.42 135.63"/><polyline class="cls-2" points="122.17 116.6 108.06 133.82 122.17 150.7"/><line class="cls-2" x1="122.27" y1="133.82" x2="108.06" y2="133.82"/></g></g></svg>